<mxfile host="65bd71144e">
    <diagram id="16-lpvnQjRnDFFHjn-Cp" name="Page-1">
        <mxGraphModel dx="1966" dy="546" grid="1" gridSize="10" guides="1" tooltips="1" connect="1" arrows="1" fold="1" page="1" pageScale="1" pageWidth="850" pageHeight="1100" math="0" shadow="0">
            <root>
                <mxCell id="0"/>
                <mxCell id="1" parent="0"/>
                <mxCell id="4" value="&lt;ul&gt;&lt;li&gt;&lt;font color=&quot;#000000&quot; style=&quot;font-size: 14px;&quot; face=&quot;Helvetica&quot;&gt;{&quot;number&quot;:3087,&lt;/font&gt;&lt;/li&gt;&lt;li&gt;&lt;font color=&quot;#000000&quot; size=&quot;3&quot; face=&quot;Helvetica&quot;&gt;&quot;contractName&quot;:&quot;lyon&quot;,&lt;/font&gt;&lt;/li&gt;&lt;li&gt;&lt;font color=&quot;#000000&quot; size=&quot;3&quot; face=&quot;Helvetica&quot;&gt;&quot;name&quot;:&quot;3087 - PARTDIEU / GARIBALDI&quot;,&lt;/font&gt;&lt;/li&gt;&lt;li&gt;&lt;font color=&quot;#000000&quot; size=&quot;3&quot; face=&quot;Helvetica&quot;&gt;&quot;address&quot;:&quot;4 BVD EUGENE DERUELLE&quot;,&lt;/font&gt;&lt;/li&gt;&lt;li&gt;&lt;font color=&quot;#000000&quot; size=&quot;3&quot; face=&quot;Helvetica&quot;&gt;&quot;position&quot;:{&quot;latitude&quot;:45.762768,&quot;longitude&quot;:4.852563},&lt;/font&gt;&lt;/li&gt;&lt;li&gt;&lt;font color=&quot;#000000&quot; size=&quot;3&quot; face=&quot;Helvetica&quot;&gt;&quot;banking&quot;:true,&lt;/font&gt;&lt;/li&gt;&lt;li&gt;&lt;font color=&quot;#000000&quot; size=&quot;3&quot; face=&quot;Helvetica&quot;&gt;&quot;bonus&quot;:false,&lt;/font&gt;&lt;/li&gt;&lt;li&gt;&lt;font color=&quot;#000000&quot; size=&quot;3&quot; face=&quot;Helvetica&quot;&gt;&quot;status&quot;:&quot;OPEN&quot;,&lt;/font&gt;&lt;/li&gt;&lt;li&gt;&lt;font color=&quot;#000000&quot; size=&quot;3&quot; face=&quot;Helvetica&quot;&gt;&quot;lastUpdate&quot;:&quot;2023-05-30T09:05:15Z&quot;,&lt;/font&gt;&lt;/li&gt;&lt;li&gt;&lt;font color=&quot;#000000&quot; size=&quot;3&quot; face=&quot;Helvetica&quot;&gt;&quot;connected&quot;:true,&lt;/font&gt;&lt;/li&gt;&lt;li&gt;&lt;font color=&quot;#000000&quot; size=&quot;3&quot; face=&quot;Helvetica&quot;&gt;&quot;overflow&quot;:false,&lt;/font&gt;&lt;/li&gt;&lt;li&gt;&lt;font color=&quot;#000000&quot; size=&quot;3&quot; face=&quot;Helvetica&quot;&gt;&quot;shape&quot;:null,&lt;/font&gt;&lt;/li&gt;&lt;li&gt;&lt;font color=&quot;#000000&quot; size=&quot;3&quot; face=&quot;Helvetica&quot;&gt;&quot;totalStands&quot;:{&quot;availabilities&quot;:{&quot;bikes&quot;:13,&quot;stands&quot;:7,&quot;mechanicalBikes&quot;:7,&quot;electricalBikes&quot;:6,&quot;electricalInternalBatteryBikes&quot;:0,&quot;electricalRemovableBatteryBikes&quot;:6},&quot;capacity&quot;:20},&lt;/font&gt;&lt;/li&gt;&lt;li&gt;&lt;font color=&quot;#000000&quot; size=&quot;3&quot; face=&quot;Helvetica&quot;&gt;&quot;mainStands&quot;:{&quot;availabilities&quot;:{&quot;bikes&quot;:13,&quot;stands&quot;:7,&quot;mechanicalBikes&quot;:7,&quot;electricalBikes&quot;:6,&quot;electricalInternalBatteryBikes&quot;:0,&quot;electricalRemovableBatteryBikes&quot;:6},&quot;capacity&quot;:20},&quot;overflowStands&quot;:null}&lt;/font&gt;&lt;/li&gt;&lt;/ul&gt;&lt;div&gt;&lt;font size=&quot;3&quot; face=&quot;Helvetica&quot; color=&quot;#000000&quot;&gt;&lt;br&gt;&lt;/font&gt;&lt;/div&gt;&lt;div&gt;&lt;font size=&quot;3&quot; face=&quot;Helvetica&quot; color=&quot;#000000&quot;&gt;&lt;br&gt;&lt;/font&gt;&lt;/div&gt;&lt;div&gt;&lt;font size=&quot;3&quot; face=&quot;Helvetica&quot; color=&quot;#000000&quot;&gt;{&quot;name&quot;:&quot;rouen&quot;,&quot;commercial_name&quot;:&quot;cy'clic&quot;,&quot;cities&quot;:[&quot;Rouen&quot;],&quot;country_code&quot;:&quot;FR&quot;}&lt;br&gt;&lt;/font&gt;&lt;/div&gt;&lt;div&gt;&lt;font size=&quot;3&quot; face=&quot;Helvetica&quot; color=&quot;#000000&quot;&gt;&lt;br&gt;&lt;/font&gt;&lt;/div&gt;&lt;div&gt;&lt;br&gt;&lt;/div&gt;&lt;div&gt;&lt;font size=&quot;3&quot; face=&quot;Helvetica&quot; color=&quot;#000000&quot;&gt;&lt;br&gt;&lt;/font&gt;&lt;/div&gt;" style="text;whiteSpace=wrap;html=1;fontSize=20;fontFamily=Architects Daughter;fillColor=#FFFFFF;" parent="1" vertex="1">
                    <mxGeometry x="120" y="160" width="1470" height="1600" as="geometry"/>
                </mxCell>
            </root>
        </mxGraphModel>
    </diagram>
</mxfile>